<?xml version="1.0" encoding="utf-8"?>
<!-- Generator: Adobe Illustrator 24.0.2, SVG Export Plug-In . SVG Version: 6.00 Build 0)  -->
<svg version="1.0" id="Layer_1" xmlns="http://www.w3.org/2000/svg" xmlns:xlink="http://www.w3.org/1999/xlink" x="0px" y="0px"
	 viewBox="0 0 84.578323 83.364143" style="enable-background:new 0 0 84.578323 83.364143;" xml:space="preserve">
<style type="text/css">
	.st0{fill:#81888A;}
</style>
<g>
	<path class="st0" d="M68.693123,44.638283c-0.104515-6.062073-0.313553-6.89822-1.045181-9.6157
		s-5.434963-12.228662-6.584667-15.050663c-1.1497-2.821999-2.09037-11.915107-3.344589-13.06481
		c-1.254223-1.149704-5.121407-1.149704-10.765404-0.836148c-5.644001,0.313555-18.813328,6.584665-22.575994,9.093107
		s-8.047922,5.330442-8.88407,9.929256c-0.673348,3.703415-1.567778,33.550434-1.463259,39.089916
		c0.104519,5.539474,0.051468,9.667168,1.776814,11.392509c1.254221,1.254227,1.567778,1.045189,3.553629,1.56778
		s15.050659-0.104515,17.97718-0.627113c2.926517-0.522591,9.6157-0.836143,13.064808-1.254219
		c3.449112-0.418076,6.375629-2.612961,11.392517-6.480148c5.016884-3.86718,6.375626-6.584663,7.002739-8.361477
		C69.424751,58.643761,68.797646,50.700356,68.693123,44.638283z M63.797573,60.96904
		c-0.613842,1.561245-1.942703,3.83725-5.997513,6.973244c-4.398914,3.402153-6.964951,5.333092-9.989223,5.700897
		c-3.024246,0.367805-8.889481,0.643646-11.455517,1.103416c-2.566063,0.459747-14.021578,1.011452-15.762821,0.551682
		c-1.741243-0.45974-2.016165-0.275841-3.115906-1.379257c-1.512814-1.51786-1.466295-5.149162-1.557954-10.022518
		c-0.091632-4.873352,0.692615-31.131199,1.283031-34.389259c0.169767-0.93689,0.503302-1.789062,0.954191-2.574305
		l-0.88583-2.362204l1.99889,0.799557c0.88435-1.033728,1.962172-1.94352,3.094421-2.780764l-0.599016-1.572422l1.941298,0.621218
		c0.43124-0.295082,0.862303-0.583044,1.285812-0.86631c3.034786-2.029945,13.048073-6.860403,18.485405-7.83636l-0.105362-4.159458
		l1.649586,3.983389c3.126343-0.170301,5.614197-0.223531,7.271461,0.03159l3.022232-3.480139L54.1278,13.425838
		c0.034271,0.02669,0.067417,0.053892,0.098141,0.08214c1.009945,0.928877,1.78804,7.750954,2.689156,10.781633l1.848774-0.136951
		l-1.340549,1.474588c1.227379,2.819805,4.41708,9.378035,5.339375,12.071119l3.526505-0.480896l-3.073753,2.107719
		c0.41647,1.679031,0.556709,2.929276,0.633133,7.376694c0.075863,4.41481,0.465744,9.963779,0.28582,12.630531l2.572876,1.715267
		L63.797573,60.96904z"/>
	<g id="iWz7Au_1_">
		<g>
			<path class="st0" d="M24.576572,52.976406c-0.17976,0.164822-0.338993,0.302032-0.488293,0.449226
				c-0.663988,0.654629-1.330261,1.307091-1.985455,1.970375c-0.419214,0.424389-0.944962,0.670063-1.315531,0.118763
				c-0.175657-0.261322-0.052105-0.947346,0.188473-1.220337c0.885878-1.005253,1.89212-1.904186,2.823494-2.871353
				c0.527018-0.547272,0.985672-0.568623,1.51232-0.012745c0.589886,0.622623,1.246767,1.184731,1.810934,1.828388
				c0.487034,0.555656,0.846931,0.681267,1.373499,0.030434c0.489773-0.605354,1.092642-1.120827,1.652626-1.668873
				c0.87513-0.856472,0.986773-0.855347,1.899181,0.034962c0.614189,0.599312,1.245476,1.184898,1.815971,1.823673
				c0.379982,0.425449,0.620728,0.3545,0.970982-0.022343c0.63443-0.68259,1.33448-1.30479,1.967701-1.988403
				c0.562393-0.607155,1.044807-0.577152,1.596104,0.011475c0.637096,0.680237,1.340904,1.298992,1.970524,1.985546
				c0.366825,0.39999,0.605339,0.397369,0.971542-0.000374c0.656296-0.712822,1.374287-1.368912,2.049675-2.064888
				c0.489246-0.504166,0.941032-0.515549,1.434883-0.005878c0.648907,0.669685,1.348015,1.293091,1.971035,1.985035
				c0.412167,0.457764,0.691967,0.516186,1.127502,0.021618c0.590328-0.67033,1.279015-1.253864,1.886913-1.910069
				c0.54493-0.588234,1.022327-0.631824,1.597614-0.033245c0.930229,0.967888,1.900352,1.897766,2.853504,2.843819
				c0.38055,0.377712,0.617847,0.815319,0.179386,1.264462c-0.478661,0.49033-0.93119,0.256012-1.345459-0.16935
				c-0.650715-0.668148-1.343033-1.297497-1.971989-1.984768c-0.378429-0.413517-0.62653-0.372307-0.982185,0.019131
				c-0.551243,0.606686-1.151653,1.169361-1.735874,1.746014c-0.93317,0.921078-1.114429,0.917511-2.084728-0.038605
				c-0.558144-0.549988-1.135807-1.083233-1.658009-1.665504c-0.380062-0.423782-0.648556-0.479141-1.058659-0.022076
				c-0.621861,0.693077-1.317783,1.319748-1.968754,1.987659c-0.521698,0.535271-1.012489,0.536938-1.534691-0.001347
				c-0.623409-0.642612-1.306423-1.232208-1.888813-1.908607c-0.475246-0.551964-0.786129-0.474518-1.223186,0.02874
				c-0.512199,0.589783-1.09618,1.118504-1.657284,1.66531c-0.886974,0.864372-1.085796,0.859692-2.007496-0.043449
				c-0.559654-0.548382-1.139214-1.080631-1.655865-1.667236c-0.411327-0.467018-0.702251-0.514702-1.139711-0.01778
				c-0.590158,0.670372-1.270864,1.260807-1.889484,1.907566c-0.556547,0.58186-1.064434,0.572689-1.618319-0.00544
				c-0.645035-0.673271-1.319265-1.318855-1.982752-1.974525C24.907721,53.272758,24.768761,53.152912,24.576572,52.976406z"/>
			<path class="st0" d="M24.538977,40.002075c-0.196217,0.184494-0.361317,0.333309-0.519236,0.489334
				c-0.663246,0.655281-1.277861,1.372135-2.009556,1.939556c-0.284866,0.220913-0.831854,0.106804-1.259445,0.145298
				c0.060902-0.423519-0.027948-0.977787,0.20941-1.247234c0.885305-1.00499,1.894419-1.900566,2.823637-2.868999
				c0.582249-0.606823,1.071831-0.521355,1.607275,0.043182c0.564308,0.594971,1.216238,1.116108,1.724697,1.752769
				c0.570303,0.714096,0.954958,0.546795,1.461935-0.048775c0.505835-0.594227,1.11771-1.097679,1.646303-1.674355
				c0.573282-0.625427,1.093447-0.673592,1.689127-0.026318c0.55484,0.602901,1.191486,1.132622,1.730656,1.74794
				c0.48595,0.554573,0.844967,0.674221,1.375965,0.028778c0.542038-0.658863,1.21402-1.21014,1.805664-1.830677
				c0.517384-0.542645,1.00016-0.563126,1.528065-0.020821c0.650234,0.667961,1.342613,1.296612,1.971252,1.983547
				c0.381401,0.416767,0.643394,0.471802,1.049202,0.022419c0.62384-0.690834,1.32349-1.313156,1.968964-1.985489
				c0.518513-0.540092,0.999958-0.562447,1.52861-0.018444c0.64959,0.668453,1.347153,1.292439,1.972137,1.982204
				c0.3867,0.426785,0.64645,0.460278,1.04697,0.019173c0.625854-0.689259,1.32132-1.3153,1.967628-1.986881
				c0.518963-0.539257,1.002392-0.55286,1.532459-0.016289c0.969593,0.981487,1.958256,1.944275,2.93306,2.9207
				c0.396431,0.397091,0.543587,0.922379,0.056458,1.243877c-0.256924,0.169567-0.890877,0.08202-1.157963-0.132313
				c-0.723312-0.580441-1.366077-1.268585-1.99258-1.95747c-0.408928-0.449642-0.695309-0.536369-1.14077-0.027443
				c-0.587734,0.671471-1.271828,1.258297-1.890659,1.904152c-0.550587,0.574623-1.058483,0.596096-1.617519,0.011372
				c-0.644119-0.673721-1.336674-1.302132-1.969486-1.985741c-0.369202-0.398838-0.605736-0.395638-0.9767,0.014622
				c-0.623875,0.689945-1.32885,1.306435-1.977531,1.975147c-0.564484,0.581917-1.069458,0.54882-1.616005-0.029057
				c-0.614738-0.649979-1.281544-1.251335-1.892441-1.904667c-0.372875-0.398773-0.635109-0.511524-1.058002-0.024326
				c-0.584663,0.673573-1.276314,1.253799-1.89122,1.903034c-0.583652,0.616238-1.109352,0.639187-1.699825,0.005394
				c-0.609669-0.654388-1.290646-1.243786-1.888357-1.908054c-0.4067-0.451984-0.672621-0.409569-1.057951,0.022194
				c-0.545082,0.610771-1.149916,1.169479-1.739479,1.739922c-0.893541,0.864559-1.09046,0.858456-2.004564-0.041214
				c-0.584826-0.575596-1.160389-1.160542-1.747292-1.734005C24.907167,40.276958,24.725784,40.152866,24.538977,40.002075z"/>
			<path class="st0" d="M37.663666,59.054626c-5.11771,0-10.23542,0.000034-15.35313-0.000107
				c-0.261486-0.000008-0.523031-0.005524-0.784441-0.001495c-0.561781,0.008644-1.066263-0.220142-0.930529-0.800781
				c0.075172-0.321568,0.612806-0.577896,0.989859-0.770962c0.206896-0.105942,0.513214-0.01965,0.774702-0.01965
				c10.123356-0.000042,20.246708-0.000038,30.37006-0.000038c0.037357,0,0.07502-0.003132,0.112022,0.000462
				c0.694687,0.067532,1.757599-0.292538,1.790668,0.774929c0.034592,1.116722-1.043884,0.804699-1.728188,0.807274
				C47.824409,59.063377,42.744019,59.054623,37.663666,59.054626z"/>
			<path class="st0" d="M31.46629,31.527693c2.840183-0.000282,5.680363-0.000294,8.520546-0.000257
				c0.186855,0.000002,0.374363,0.010555,0.560444-0.001305c0.606197-0.038637,1.138233,0.190311,1.04612,0.815971
				c-0.043945,0.298504-0.646515,0.733856-0.998856,0.736496c-6.05373,0.045364-12.107899,0.030514-18.161964,0.036369
				c-0.593073,0.000576-1.098789-0.153404-1.074242-0.825729c0.024643-0.674923,0.564596-0.767153,1.138987-0.765434
				C25.486956,31.532759,28.476629,31.527977,31.46629,31.527693z"/>
			<path class="st0" d="M44.444027,46.091297c-2.840206,0.000961-5.680408,0.001278-8.520615,0.000435
				c-0.261505-0.000076-0.579483,0.084377-0.771564-0.032616c-0.304581-0.185516-0.676884-0.4818-0.729069-0.781521
				c-0.036476-0.209484,0.3759-0.564102,0.659557-0.737637c0.192589-0.117813,0.509495-0.039814,0.770805-0.039864
				c5.792526-0.001072,11.585056-0.000828,17.377586-0.00074c0.149479,0.000004,0.340363-0.057877,0.440968,0.012211
				c0.354294,0.246834,0.677605,0.537754,1.012669,0.811947c-0.349014,0.255608-0.693882,0.726311-1.047703,0.733082
				C50.573364,46.115177,47.508453,46.090336,44.444027,46.091297z"/>
			<path class="st0" d="M45.694382,36.408768c-2.426025,0.000889-4.852055,0.003975-7.278057-0.002712
				c-0.332638-0.000916-0.721962,0.046612-0.982025-0.104279c-0.270451-0.156914-0.550129-0.517757-0.57093-0.807556
				c-0.014946-0.208202,0.35096-0.534279,0.615986-0.647171c0.289597-0.123356,0.658665-0.078075,0.993114-0.07832
				c4.852039-0.003571,9.704079-0.002491,14.556118-0.002216c0.1866,0.000011,0.373371-0.001431,0.559761,0.005653
				c0.561882,0.021358,1.111649,0.14151,1.080708,0.834431c-0.029697,0.665314-0.576466,0.798077-1.136768,0.799118
				C50.919659,36.410591,48.307018,36.407879,45.694382,36.408768z"/>
			<path class="st0" d="M35.173607,47.791271c2.689133-0.000534,5.378265-0.000946,8.067398,0.000034
				c0.298695,0.000111,0.636551-0.077698,0.885799,0.035023c0.28775,0.130131,0.681049,0.423233,0.69183,0.660721
				c0.011974,0.263718-0.302544,0.639069-0.573719,0.79092c-0.263401,0.147499-0.652004,0.093319-0.985649,0.093578
				c-5.415607,0.004208-10.831223,0.002987-16.246836,0.002895c-0.149395-0.000004-0.298868,0.001865-0.448166-0.002186
				c-0.561619-0.015244-1.113317-0.137257-1.127026-0.807709c-0.014376-0.702988,0.539513-0.777004,1.108734-0.775719
				C29.421839,47.795311,32.297726,47.791809,35.173607,47.791271z"/>
			<path class="st0" d="M33.094467,60.765759c2.388927,0.000134,4.777855,0.000408,7.166786-0.000065
				c0.602421-0.000114,1.348118-0.068279,1.351891,0.761971c0.003986,0.877575-0.76284,0.847282-1.41103,0.847252
				c-4.703209-0.000225-9.406414-0.000103-14.109621-0.000389c-0.186613-0.000011-0.421276,0.068077-0.550468-0.018486
				c-0.33419-0.223892-0.821251-0.476231-0.885447-0.790478c-0.123137-0.602772,0.384819-0.796917,0.935177-0.797024
				c1.866344-0.000378,3.732689-0.001945,5.599033-0.002869C31.825348,60.765362,32.459908,60.765621,33.094467,60.765759z"/>
			<path class="st0" d="M28.559389,65.55336c-2.242498,0.000084-4.485006,0.003906-6.727486-0.00264
				c-0.551172-0.00161-1.235342,0.098686-1.26017-0.719101c-0.025282-0.832687,0.62723-0.888222,1.259167-0.88829
				c4.559748-0.000507,9.119493,0.000534,13.679239-0.001068c0.604652-0.00021,1.207912,0.10495,1.219982,0.830544
				c0.012993,0.781433-0.638863,0.780937-1.218987,0.780762C33.193886,65.552841,30.876638,65.553268,28.559389,65.55336z"/>
			<path class="st0" d="M45.284546,65.552818c-1.902687-0.000038-3.805397-0.004654-5.708057,0.002777
				c-0.567196,0.002213-1.11076-0.066505-1.100174-0.777611c0.009922-0.666626,0.523815-0.832363,1.097061-0.832767
				c3.842682-0.002708,7.685738-0.02483,11.5275,0.034485c0.381989,0.005894,1.021301,0.470745,1.07795,0.801273
				c0.113159,0.660217-0.50853,0.774422-1.074287,0.773323C49.164547,65.550537,47.224545,65.552856,45.284546,65.552818z"/>
			<path class="st0" d="M31.137348,29.875313c-1.492331,0.000284-2.984682,0.004608-4.476986-0.001894
				c-0.578485-0.00252-1.224966-0.031916-1.216475-0.80389c0.008512-0.773956,0.66733-0.780235,1.237427-0.781343
				c2.947342-0.005726,5.894712-0.005749,8.842047,0.001966c0.569679,0.00149,1.223305,0.010662,1.211353,0.799397
				c-0.011791,0.778389-0.661171,0.78013-1.232311,0.783026C34.047417,29.879951,32.592369,29.875031,31.137348,29.875313z"/>
			<path class="st0" d="M26.642845,44.499458c1.602722,0.000027,3.205521,0.008846,4.80813-0.004452
				c0.613756-0.005093,1.217489,0.102386,1.214975,0.815262c-0.002583,0.731232-0.631214,0.786846-1.231409,0.78537
				c-3.242701-0.007977-6.48543-0.005325-9.728146-0.002449c-0.552042,0.000492-1.119917-0.032818-1.140228-0.743824
				c-0.021704-0.759724,0.542765-0.856201,1.156708-0.852917C23.362823,44.505219,25.00285,44.499432,26.642845,44.499458z"/>
			<path class="st0" d="M48.981892,31.527645c1.49609,0.000078,2.99231,0.011806,4.488197-0.005547
				c0.620655-0.0072,1.205051,0.095379,1.189701,0.827869c-0.013611,0.64949-0.554138,0.771008-1.140938,0.768314
				c-2.992107-0.013729-5.984333-0.011127-8.976482-0.002266c-0.611416,0.001812-1.211262-0.072807-1.185184-0.826584
				c0.026134-0.75544,0.657848-0.768967,1.248672-0.765041C46.064476,31.534082,47.523209,31.527569,48.981892,31.527645z"/>
			<path class="st0" d="M49.033047,60.766106c1.45694-0.000034,2.913895,0.003468,4.370811-0.001755
				c0.58345-0.00209,1.234158-0.000317,1.252884,0.757881c0.017921,0.725842-0.586903,0.851845-1.193462,0.851879
				c-2.988594,0.000149-5.977821,0.029503-8.965023-0.034702c-0.392735-0.008442-1.059811-0.454647-1.105194-0.768898
				c-0.106716-0.738976,0.55579-0.810528,1.157104-0.807144C46.044418,60.771786,47.53875,60.766136,49.033047,60.766106z"/>
			<path class="st0" d="M30.671984,36.408428c-1.082535-0.000099-2.165119,0.006218-3.247581-0.002613
				c-0.592463-0.004833-1.196621-0.100998-1.189705-0.852028c0.006382-0.693081,0.584557-0.779835,1.133032-0.781639
				c2.202368-0.007252,4.404778-0.006142,6.607159-0.001072c0.55188,0.00127,1.129822,0.089954,1.134201,0.779472
				c0.004696,0.739254-0.588783,0.854153-1.189507,0.856689C32.837067,36.411804,31.754517,36.408527,30.671984,36.408428z"/>
			<path class="st0" d="M50.124264,29.872103c-1.084663,0.000156-2.169407,0.00824-3.253948-0.003166
				c-0.563728-0.00593-1.168571-0.161318-1.044033-0.829081c0.056553-0.303238,0.661842-0.706945,1.028664-0.717884
				c2.24213-0.066862,4.48727-0.038288,6.731377-0.031528c0.564354,0.001699,1.169769,0.155853,1.043808,0.825794
				c-0.057354,0.305042-0.652695,0.690483-1.030315,0.721445C52.448166,29.93211,51.283726,29.871946,50.124264,29.872103z"/>
			<path class="st0" d="M50.604546,49.373585c-0.932499,0-1.865173,0.010963-2.797428-0.004021
				c-0.58062-0.009331-1.191555-0.069492-1.181843-0.848446c0.009266-0.742832,0.598118-0.729095,1.134541-0.729328
				c1.939594-0.000839,3.879208,0.004047,5.818779-0.002625c0.577282-0.001984,1.164192,0.130165,1.05455,0.794735
				c-0.050903,0.308552-0.634811,0.710567-1.011158,0.750278c-0.995892,0.105083-2.010361,0.035618-3.017441,0.035618
				C50.604546,49.371059,50.604546,49.372322,50.604546,49.373585z"/>
			<path class="st0" d="M41.195244,29.855282c-0.632454,0-1.279713,0.079554-1.89119-0.033215
				c-0.310581-0.057276-0.556698-0.461021-0.831959-0.708139c0.288406-0.271004,0.56258-0.755737,0.867695-0.775881
				c1.296322-0.085579,2.604523-0.07732,3.901897,0.001957c0.292931,0.0179,0.559818,0.458216,0.838696,0.704082
				c-0.29195,0.272194-0.550461,0.715763-0.882973,0.780066c-0.645397,0.124809-1.332378,0.036516-2.002129,0.036516
				C41.195271,29.858873,41.195259,29.857077,41.195244,29.855282z"/>
			<path class="st0" d="M23.018475,34.769581c0.536455,0.073299,1.511168-0.202045,1.470154,0.858372
				c-0.035479,0.917366-0.92808,0.751007-1.578108,0.780716c-0.148115,0.006767-0.297131,0.005196-0.445274-0.001949
				c-0.555109-0.026772-1.09656-0.150227-1.107878-0.820942c-0.011707-0.693684,0.548887-0.784771,1.096663-0.81496
				C22.60203,34.762661,22.750866,34.769581,23.018475,34.769581z"/>
			<path class="st0" d="M22.19269,47.795494c0.223026,0,0.4872-0.076134,0.660147,0.016518
				c0.318548,0.170658,0.583488,0.440498,0.870768,0.669006c-0.274569,0.292271-0.499302,0.699173-0.837566,0.844936
				c-0.346087,0.149136-0.803587,0.051346-1.212076,0.045319c-0.55427-0.008171-1.086777-0.104111-1.112539-0.799667
				c-0.027407-0.739933,0.516905-0.788567,1.073681-0.780399c0.185823,0.002724,0.371723,0.000427,0.557587,0.000427
				C22.19269,47.792919,22.19269,47.794209,22.19269,47.795494z"/>
		</g>
	</g>
</g>
</svg>
